<svg xmlns="http://www.w3.org/2000/svg" viewBox="0 0 1000 1000">
  <rect width="1000" height="1000" style="fill: #e23b71"/>
  <path d="M-181,727.84"/>
  <g>
    <path d="M500,924.34c-178.34,0-285.6-102.62-324-147.6a55,55,0,0,1-3.81-4.09,430.31,430.31,0,0,1-38.83-53.85,58.76,58.76,0,0,1,7.05-70.25l27.85-30-9.17-28.27L119,582.36A58.69,58.69,0,0,1,72,529.9c-1-11.53-1.47-23-1.46-34.24,0-11.37.45-23.29,1.44-35.35a58.65,58.65,0,0,1,47.21-52.66l40.05-7.8,9.2-28.31-27.77-29.9a58.8,58.8,0,0,1-7.05-70.44,431.15,431.15,0,0,1,40.83-55.91,58.55,58.55,0,0,1,69.11-14.84l37,17.2,24.09-17.44-4.84-40.62a58.76,58.76,0,0,1,35.7-61,433,433,0,0,1,65.85-21.31,58.53,58.53,0,0,1,64.81,28.69l19.76,35.79,29.68.08,20-35.76a58.57,58.57,0,0,1,64.88-28.34,429.43,429.43,0,0,1,65.69,21.61,58.76,58.76,0,0,1,35.45,61.22l-5,40.58,24,17.52,37.15-17.11a58.58,58.58,0,0,1,69.09,15.25A436,436,0,0,1,867.37,273a58.84,58.84,0,0,1-7.3,70.41l-28,29.86,9,28.26,40.06,8a58.76,58.76,0,0,1,46.89,52.86c.83,11,1.29,21.8,1.35,32.25v.24c0,12-.56,24.46-1.66,36.93a58.73,58.73,0,0,1-47.19,52.33L840.4,592l-9.3,28.21,27.62,30a60.47,60.47,0,0,1,4.86,6.08,58.54,58.54,0,0,1,1.91,64.25,428.1,428.1,0,0,1-39.16,53.75c-.43.5-.86,1-1.31,1.48-13.95,17.07-52.6,59.46-117.84,95.24C642.64,906.39,573,924.34,500,924.34Z" style="fill: #231f20"/>
    <path d="M912.06,494.77v.14c0,11.52-.53,23.42-1.58,35.41A41.3,41.3,0,0,1,877.3,567.1l-50.21,9.71-15.7,47.6L845.92,662a40.83,40.83,0,0,1,3.38,4.22,41.38,41.38,0,0,1,1.39,45.23A411,411,0,0,1,813.11,763c-.39.47-.78.91-1.2,1.35C768.32,817.93,657.88,907,500,907c-176.55,0-279.21-104.3-311.38-142.18a36.83,36.83,0,0,1-3.16-3.32,413.22,413.22,0,0,1-37.27-51.69,41.4,41.4,0,0,1,1.55-45.17,40.37,40.37,0,0,1,3.43-4.25L188,622.88l-15.48-47.69-50.11-9.88a41.27,41.27,0,0,1-33-36.87c-.94-11.09-1.4-22.11-1.39-32.76,0-10.91.43-22.37,1.38-33.95a41.23,41.23,0,0,1,33.19-37L172.62,415l15.52-47.76-34.72-37.39a41.33,41.33,0,0,1-5-49.53,413,413,0,0,1,39.17-53.64,41.17,41.17,0,0,1,48.59-10.43l46.28,21.51,40.63-29.43-6.05-50.76a41.3,41.3,0,0,1,25.11-42.91,415.88,415.88,0,0,1,63.19-20.46A41.2,41.2,0,0,1,451,114.34l24.71,44.74,50.14.14,25-44.69A41.19,41.19,0,0,1,596.38,94.6a412.59,412.59,0,0,1,63.06,20.75,41.31,41.31,0,0,1,24.93,43l-6.29,50.74,40.49,29.57L765,217.32A41.19,41.19,0,0,1,813.57,228a418.21,418.21,0,0,1,38.94,54,41.38,41.38,0,0,1-5.14,49.51l-34.94,37.3,15.29,47.73,50.07,10a41.33,41.33,0,0,1,33,37.17C911.57,474.25,912,484.67,912.06,494.77Z" style="fill: #fff"/>
    <g>
      <path d="M260.78,796l16.74-13.07a58.65,58.65,0,0,0,22.78,22.52c9.62,5.11,14.81,4.41,16.93.42,6.93-13-44.81-28.36-28.58-58.85,7.8-14.67,26.13-20.26,50.53-7.28,10.68,5.68,20.39,14,26,23l-16.33,13.43c-5.62-8.4-12.23-14.63-19.39-18.44-9.73-5.18-15-3.77-17.18.34C305.59,770.64,357.15,786,341,816.3c-7.61,14.31-26.07,20.14-50.47,7.16C277.09,816.28,265.65,805.53,260.78,796Z" style="fill: #231f20"/>
      <path d="M352.14,811.15c6.16-27.62,31.67-42.49,60.46-36.07,16.73,3.73,28.86,12.84,35.22,25.83l-19.64,11.14c-4.17-8.15-10.34-13.47-19-15.41-14.91-3.33-27.6,4.73-31.07,20.29s4.59,28.26,19.5,31.58c8.69,1.94,16.53-.26,23.77-5.86l13,18.43c-11.27,9.06-26.12,12.14-42.85,8.41C362.75,863.07,346,838.77,352.14,811.15Z" style="fill: #231f20"/>
      <path d="M520.11,851.69c11.67-5.36,18.52-15.32,18.8-29,.41-21.25-15.26-34.72-40.64-35.22l-42.52-.85L454,879.73q13,1.57,26.28,2.27l.45-26.58,14.36.29,17.39,26.6q13.44-.42,26.65-1.75Zm-24.38-16.31-14.62-.29.54-27.23,14.61.29c10.9.22,16.24,5.37,16.07,14S506.62,835.61,495.73,835.38Z" style="fill: #231f20"/>
      <path d="M635,807c-7.43-27.73-28.87-38.49-54.28-31.69s-38.62,26.84-31.21,54.56l12.75,47.65q12.87-2.1,25.45-5.06l-5.51-20.66,35-9.37,5.37,20.08q12.57-4.25,24.74-9.33ZM577,832.15,574,821c-3.63-13.62,1.87-21.83,12.27-24.61S605.39,798,609,811.6l3,11.17Z" style="fill: #231f20"/>
      <path d="M719.18,750.89c-10-18.77-30.24-22.88-52.64-11L629,759.9l43.48,81.68q11.78-5.94,23.06-12.67l-11-20.74,14.32-7.61C721.21,788.64,729.11,769.54,719.18,750.89ZM687.67,783l-12.91,6.87-12.79-24,12.9-6.87c9.61-5.12,16.8-3.22,20.85,4.4S697.29,777.89,687.67,783Z" style="fill: #231f20"/>
    </g>
    <path d="M887.66,465.43a18,18,0,0,0-14.42-16.24l-52.57-10.52a18.88,18.88,0,0,1-14.26-12.74l-16.82-52.56a18.84,18.84,0,0,1,4.18-18.63l36.67-39.16a18,18,0,0,0,2.25-21.65,393.37,393.37,0,0,0-36.78-51,18,18,0,0,0-21.23-4.68L726,260.68a18.92,18.92,0,0,1-19-1.9l-44.58-32.57a18.8,18.8,0,0,1-7.59-17.53l6.59-53.29a18,18,0,0,0-10.89-18.81A389.63,389.63,0,0,0,591,117a18,18,0,0,0-20,8.72l-26.22,46.91a18.81,18.81,0,0,1-16.51,9.65l-55.22-.16a18.85,18.85,0,0,1-16.45-9.73l-25.95-47a18,18,0,0,0-19.92-8.82,392,392,0,0,0-59.66,19.31,18,18,0,0,0-11,18.77l6.35,53.28a18.84,18.84,0,0,1-7.66,17.5L294,257.85a18.84,18.84,0,0,1-19,1.82l-48.61-22.6a18,18,0,0,0-21.23,4.57,386.77,386.77,0,0,0-37,50.6,18,18,0,0,0,2.17,21.66l36.46,39.25A18.84,18.84,0,0,1,211,371.81L193.88,424.4a18.86,18.86,0,0,1-14.33,12.68l-52.64,10.26a18,18,0,0,0-14.5,16.14c-.86,10.62-1.33,21.31-1.29,32.08,0,10.35.45,20.63,1.31,30.79a17.93,17.93,0,0,0,14.44,16.08l52.6,10.37a18.86,18.86,0,0,1,14.29,12.68l17,52.54a18.85,18.85,0,0,1-4.12,18.63L170.21,676A18,18,0,0,0,168,697.57a389.56,389.56,0,0,0,35.16,48.78,18,18,0,0,0,23.89,3.11l61-42.07a41.07,41.07,0,0,1,48.26,1.05,269,269,0,0,0,326,.9,40.91,40.91,0,0,1,47.94-.89l61.3,42.35a17.94,17.94,0,0,0,23.83-3,387.65,387.65,0,0,0,35.44-48.63,18,18,0,0,0-2.08-21.64L792.6,638.09a18.85,18.85,0,0,1-4-18.67L805.87,567a18.85,18.85,0,0,1,14.32-12.6l52.69-10.19a18,18,0,0,0,14.51-16.06c1-11,1.5-22.1,1.5-33.38C888.83,484.89,888.4,475.11,887.66,465.43ZM742.53,574.74c-.88,2.69-1.8,5.34-2.77,8-.65,1.77-1.33,3.53-2,5.29-.49,1.26-1,2.51-1.5,3.76l0,.08a256.2,256.2,0,0,1-85.06,108.79A17.05,17.05,0,0,1,629,699.05c-17.14-17-37.42-42.89-48.27-72.86a104.67,104.67,0,0,1-3.55-15.79c-.54-3.48-1-7-1.4-10.77-.42-.92-.85-1.84-1.29-2.78-1,1-1.94,2-3,3a94.85,94.85,0,0,1-8,6.92q1.13,6.19,2.83,12.22c10.21,36.66,34.57,68.43,54.76,88.48a8.36,8.36,0,0,1-2,13.32,255.53,255.53,0,0,1-238.17,0,8.36,8.36,0,0,1-2-13.32c20.18-20.05,44.53-51.81,54.74-88.47q1.69-6,2.83-12.22a94.85,94.85,0,0,1-8-6.92c-1-1-2-2-3-3-.44.94-.87,1.86-1.29,2.78-.41,3.74-.85,7.29-1.4,10.77a103.47,103.47,0,0,1-3.55,15.79C408.39,656.16,388.12,682,371,699a17.08,17.08,0,0,1-22.15,1.6,257.29,257.29,0,0,1-23.1-19.18,254.58,254.58,0,0,1-81-186.56c0-141.34,117.78-257.24,259.11-255.15C643,241.81,755.25,355.29,755.25,495A254.68,254.68,0,0,1,742.53,574.74Z" style="fill: #231f20"/>
    <path d="M445,403.45c-10.11,0-19.77,15.47-21.57,34.56s4.92,34.56,15,34.56S458.19,457.1,460,438,455.07,403.45,445,403.45Z" style="fill: #231f20"/>
    <line x1="509.15" y1="548.95" x2="571.21" y2="610.58" style="fill: none;stroke: #231f20;stroke-miterlimit: 10;stroke-width: 14px"/>
    <line x1="430.99" y1="541.21" x2="519.41" y2="629.63" style="fill: none;stroke: #231f20;stroke-miterlimit: 10;stroke-width: 14px"/>
    <path d="M473.09,546.77c-2.17,2.18,74.29,74.29,74.29,74.29" style="fill: none;stroke: #231f20;stroke-miterlimit: 10;stroke-width: 14px"/>
    <line x1="538.93" y1="543.29" x2="589.12" y2="593.13" style="fill: none;stroke: #231f20;stroke-miterlimit: 10;stroke-width: 14px"/>
    <path d="M555,403.45c-10.11,0-16.84,15.47-15,34.56s11.46,34.56,21.57,34.56,16.84-15.47,15-34.56S565.15,403.45,555,403.45Z" style="fill: #231f20"/>
    <path d="M409.86,558S481,625.19,481,628.63" style="fill: none;stroke: #231f20;stroke-miterlimit: 10;stroke-width: 14px"/>
    <path d="M688.47,386.38l-7.55-19.21a18.08,18.08,0,1,0-33.66,13.23l7.54,19.2a18.05,18.05,0,0,0,13.89,11.22,45.44,45.44,0,0,1-4.9,19.06,1.91,1.91,0,0,1-3.54-.31c-7.22-25.13-27.48-43-51.39-43-1.41,0-2.84.07-4.25.21-21.7-20.81-53.56-35-89.68-38.12a10,10,0,0,1-9.13-9.93V328.05h1.5a19.83,19.83,0,0,0,20.05-18.67,19.62,19.62,0,0,0-19.6-20.56H492.7a19.83,19.83,0,0,0-20.05,18.67,19.64,19.64,0,0,0,19.6,20.56h2v10.72a10,10,0,0,1-9.14,9.93c-36.12,3.11-68,17.31-89.68,38.12-1.41-.14-2.84-.21-4.25-.21-23.91,0-44.17,17.83-51.39,43a1.92,1.92,0,0,1-3.54.33,45.44,45.44,0,0,1-4.89-19.08A18.05,18.05,0,0,0,345.2,399.6l7.55-19.2a18.1,18.1,0,0,0-10.23-23.46,17.8,17.8,0,0,0-6.6-1.25,18.06,18.06,0,0,0-16.84,11.48l-7.55,19.21a18.09,18.09,0,0,0,8.16,22.47,56.72,56.72,0,0,0,13.6,37.42,16,16,0,0,1,3.86,9.17c2.43,32.25,25.71,57.62,54,57.62h.46a127.15,127.15,0,0,0,34.49,25.39c-15.43,11.73-26,28.57-28.23,33.89l-.9,2.18.88,2.19c.25.64,6.47,15.88,22.18,31.12q1.32,1.27,2.76,2.58A106.6,106.6,0,0,0,433.67,619c15.15,10.44,36.85,19.57,66.33,19.57s51.18-9.13,66.33-19.57a105.52,105.52,0,0,0,10.89-8.58q1.44-1.3,2.76-2.58c15.72-15.24,21.93-30.48,22.18-31.12l.88-2.19-.9-2.18c-2.2-5.32-12.8-22.16-28.23-33.89a127.15,127.15,0,0,0,34.49-25.39h.46c28.28,0,51.56-25.37,54-57.62a15.84,15.84,0,0,1,3.86-9.17,56.71,56.71,0,0,0,13.59-37.42A18.09,18.09,0,0,0,688.47,386.38Zm-340,63.46c0-.71,0-1.41,0-2.1.83-25.08,16.17-45.25,36-48.94-12,15.53-18.91,33.68-18.91,53,0,17.38,5.56,33.76,15.37,48.17C362.4,494.48,348.51,474.1,348.51,449.84Zm241.85,124.8a93.15,93.15,0,0,1-15.83,22.21c-1,1-1.94,2-3,3a94.85,94.85,0,0,1-8,6.92C546.08,620.18,524.77,627,500,627s-46.08-6.78-63.5-20.2a94.85,94.85,0,0,1-8-6.92c-1-1-2-2-3-3a93.35,93.35,0,0,1-15.83-22.21c3.6-6.48,14.45-21.88,28.79-30.59a169.58,169.58,0,0,0,123.13,0C575.9,552.74,586.76,568.16,590.36,574.64ZM500,544c-67.68,0-122.74-41.35-122.74-92.2S432.32,359.65,500,359.65,622.74,401,622.74,451.83,567.68,544,500,544Zm119-44c9.8-14.41,15.36-30.79,15.36-48.17,0-19.35-6.9-37.5-18.91-53,19.86,3.69,35.2,23.86,36,48.93,0,.7,0,1.4,0,2.11C651.49,474.1,637.6,494.48,619,500Z"/>
    <line x1="562.19" y1="540.85" x2="594.48" y2="572.9" style="stroke: #231f20;stroke-miterlimit: 10;stroke-width: 6px"/>
    <circle cx="498.72" cy="493.99" r="251.93" style="fill: none;stroke: #231f20;stroke-miterlimit: 10;stroke-width: 12px"/>
  </g>
</svg>
